<?xml version="1.0" encoding="utf-8" standalone="no"?>
<!DOCTYPE svg PUBLIC "-//W3C//DTD SVG 1.1//EN"
  "http://www.w3.org/Graphics/SVG/1.1/DTD/svg11.dtd">
<!-- Created with matplotlib (https://matplotlib.org/) -->
<svg height="255.460781pt" version="1.1" viewBox="0 0 831.23519 255.460781" width="831.23519pt" xmlns="http://www.w3.org/2000/svg" xmlns:xlink="http://www.w3.org/1999/xlink">
 <defs>
  <style type="text/css">
*{stroke-linecap:butt;stroke-linejoin:round;}
  </style>
 </defs>
 <g id="figure_1">
  <g id="patch_1">
   <path d="M 0 255.460781 
L 831.23519 255.460781 
L 831.23519 0 
L 0 0 
z
" style="fill:#ffffff;"/>
  </g>
  <g id="axes_1">
   <g id="patch_2">
    <path d="M 53.281719 218.055625 
L 263.471719 218.055625 
L 263.471719 21.935625 
L 53.281719 21.935625 
z
" style="fill:#eaeaf2;"/>
   </g>
   <g id="matplotlib.axis_1">
    <g id="xtick_1">
     <g id="line2d_1">
      <path clip-path="url(#p0a4072a363)" d="M 54.455028 218.055625 
L 54.455028 21.935625 
" style="fill:none;stroke:#ffffff;stroke-linecap:round;"/>
     </g>
     <g id="line2d_2"/>
     <g id="text_1">
      <!-- 0 -->
      <defs>
       <path d="M 4.15625 35.296875 
Q 4.15625 48 6.765625 55.734375 
Q 9.375 63.484375 14.515625 67.671875 
Q 19.671875 71.875 27.484375 71.875 
Q 33.25 71.875 37.59375 69.546875 
Q 41.9375 67.234375 44.765625 62.859375 
Q 47.609375 58.5 49.21875 52.21875 
Q 50.828125 45.953125 50.828125 35.296875 
Q 50.828125 22.703125 48.234375 14.96875 
Q 45.65625 7.234375 40.5 3 
Q 35.359375 -1.21875 27.484375 -1.21875 
Q 17.140625 -1.21875 11.234375 6.203125 
Q 4.15625 15.140625 4.15625 35.296875 
z
M 13.1875 35.296875 
Q 13.1875 17.671875 17.3125 11.828125 
Q 21.4375 6 27.484375 6 
Q 33.546875 6 37.671875 11.859375 
Q 41.796875 17.71875 41.796875 35.296875 
Q 41.796875 52.984375 37.671875 58.78125 
Q 33.546875 64.59375 27.390625 64.59375 
Q 21.34375 64.59375 17.71875 59.46875 
Q 13.1875 52.9375 13.1875 35.296875 
z
" id="ArialMT-48"/>
      </defs>
      <g style="fill:#262626;" transform="translate(51.674559 232.213438)scale(0.1 -0.1)">
       <use xlink:href="#ArialMT-48"/>
      </g>
     </g>
    </g>
    <g id="xtick_2">
     <g id="line2d_3">
      <path clip-path="url(#p0a4072a363)" d="M 87.978154 218.055625 
L 87.978154 21.935625 
" style="fill:none;stroke:#ffffff;stroke-linecap:round;"/>
     </g>
     <g id="line2d_4"/>
     <g id="text_2">
      <!-- 20 -->
      <defs>
       <path d="M 50.34375 8.453125 
L 50.34375 0 
L 3.03125 0 
Q 2.9375 3.171875 4.046875 6.109375 
Q 5.859375 10.9375 9.828125 15.625 
Q 13.8125 20.3125 21.34375 26.46875 
Q 33.015625 36.03125 37.109375 41.625 
Q 41.21875 47.21875 41.21875 52.203125 
Q 41.21875 57.421875 37.46875 61 
Q 33.734375 64.59375 27.734375 64.59375 
Q 21.390625 64.59375 17.578125 60.78125 
Q 13.765625 56.984375 13.71875 50.25 
L 4.6875 51.171875 
Q 5.609375 61.28125 11.65625 66.578125 
Q 17.71875 71.875 27.9375 71.875 
Q 38.234375 71.875 44.234375 66.15625 
Q 50.25 60.453125 50.25 52 
Q 50.25 47.703125 48.484375 43.546875 
Q 46.734375 39.40625 42.65625 34.8125 
Q 38.578125 30.21875 29.109375 22.21875 
Q 21.1875 15.578125 18.9375 13.203125 
Q 16.703125 10.84375 15.234375 8.453125 
z
" id="ArialMT-50"/>
      </defs>
      <g style="fill:#262626;" transform="translate(82.417217 232.213438)scale(0.1 -0.1)">
       <use xlink:href="#ArialMT-50"/>
       <use x="55.615234" xlink:href="#ArialMT-48"/>
      </g>
     </g>
    </g>
    <g id="xtick_3">
     <g id="line2d_5">
      <path clip-path="url(#p0a4072a363)" d="M 121.50128 218.055625 
L 121.50128 21.935625 
" style="fill:none;stroke:#ffffff;stroke-linecap:round;"/>
     </g>
     <g id="line2d_6"/>
     <g id="text_3">
      <!-- 40 -->
      <defs>
       <path d="M 32.328125 0 
L 32.328125 17.140625 
L 1.265625 17.140625 
L 1.265625 25.203125 
L 33.9375 71.578125 
L 41.109375 71.578125 
L 41.109375 25.203125 
L 50.78125 25.203125 
L 50.78125 17.140625 
L 41.109375 17.140625 
L 41.109375 0 
z
M 32.328125 25.203125 
L 32.328125 57.46875 
L 9.90625 25.203125 
z
" id="ArialMT-52"/>
      </defs>
      <g style="fill:#262626;" transform="translate(115.940343 232.213438)scale(0.1 -0.1)">
       <use xlink:href="#ArialMT-52"/>
       <use x="55.615234" xlink:href="#ArialMT-48"/>
      </g>
     </g>
    </g>
    <g id="xtick_4">
     <g id="line2d_7">
      <path clip-path="url(#p0a4072a363)" d="M 155.024406 218.055625 
L 155.024406 21.935625 
" style="fill:none;stroke:#ffffff;stroke-linecap:round;"/>
     </g>
     <g id="line2d_8"/>
     <g id="text_4">
      <!-- 60 -->
      <defs>
       <path d="M 49.75 54.046875 
L 41.015625 53.375 
Q 39.84375 58.546875 37.703125 60.890625 
Q 34.125 64.65625 28.90625 64.65625 
Q 24.703125 64.65625 21.53125 62.3125 
Q 17.390625 59.28125 14.984375 53.46875 
Q 12.59375 47.65625 12.5 36.921875 
Q 15.671875 41.75 20.265625 44.09375 
Q 24.859375 46.4375 29.890625 46.4375 
Q 38.671875 46.4375 44.84375 39.96875 
Q 51.03125 33.5 51.03125 23.25 
Q 51.03125 16.5 48.125 10.71875 
Q 45.21875 4.9375 40.140625 1.859375 
Q 35.0625 -1.21875 28.609375 -1.21875 
Q 17.625 -1.21875 10.6875 6.859375 
Q 3.765625 14.9375 3.765625 33.5 
Q 3.765625 54.25 11.421875 63.671875 
Q 18.109375 71.875 29.4375 71.875 
Q 37.890625 71.875 43.28125 67.140625 
Q 48.6875 62.40625 49.75 54.046875 
z
M 13.875 23.1875 
Q 13.875 18.65625 15.796875 14.5 
Q 17.71875 10.359375 21.1875 8.171875 
Q 24.65625 6 28.46875 6 
Q 34.03125 6 38.03125 10.484375 
Q 42.046875 14.984375 42.046875 22.703125 
Q 42.046875 30.125 38.078125 34.390625 
Q 34.125 38.671875 28.125 38.671875 
Q 22.171875 38.671875 18.015625 34.390625 
Q 13.875 30.125 13.875 23.1875 
z
" id="ArialMT-54"/>
      </defs>
      <g style="fill:#262626;" transform="translate(149.463469 232.213438)scale(0.1 -0.1)">
       <use xlink:href="#ArialMT-54"/>
       <use x="55.615234" xlink:href="#ArialMT-48"/>
      </g>
     </g>
    </g>
    <g id="xtick_5">
     <g id="line2d_9">
      <path clip-path="url(#p0a4072a363)" d="M 188.547532 218.055625 
L 188.547532 21.935625 
" style="fill:none;stroke:#ffffff;stroke-linecap:round;"/>
     </g>
     <g id="line2d_10"/>
     <g id="text_5">
      <!-- 80 -->
      <defs>
       <path d="M 17.671875 38.8125 
Q 12.203125 40.828125 9.5625 44.53125 
Q 6.9375 48.25 6.9375 53.421875 
Q 6.9375 61.234375 12.546875 66.546875 
Q 18.171875 71.875 27.484375 71.875 
Q 36.859375 71.875 42.578125 66.421875 
Q 48.296875 60.984375 48.296875 53.171875 
Q 48.296875 48.1875 45.671875 44.5 
Q 43.0625 40.828125 37.75 38.8125 
Q 44.34375 36.671875 47.78125 31.875 
Q 51.21875 27.09375 51.21875 20.453125 
Q 51.21875 11.28125 44.71875 5.03125 
Q 38.234375 -1.21875 27.640625 -1.21875 
Q 17.046875 -1.21875 10.546875 5.046875 
Q 4.046875 11.328125 4.046875 20.703125 
Q 4.046875 27.6875 7.59375 32.390625 
Q 11.140625 37.109375 17.671875 38.8125 
z
M 15.921875 53.71875 
Q 15.921875 48.640625 19.1875 45.40625 
Q 22.46875 42.1875 27.6875 42.1875 
Q 32.765625 42.1875 36.015625 45.375 
Q 39.265625 48.578125 39.265625 53.21875 
Q 39.265625 58.0625 35.90625 61.359375 
Q 32.5625 64.65625 27.59375 64.65625 
Q 22.5625 64.65625 19.234375 61.421875 
Q 15.921875 58.203125 15.921875 53.71875 
z
M 13.09375 20.65625 
Q 13.09375 16.890625 14.875 13.375 
Q 16.65625 9.859375 20.171875 7.921875 
Q 23.6875 6 27.734375 6 
Q 34.03125 6 38.125 10.046875 
Q 42.234375 14.109375 42.234375 20.359375 
Q 42.234375 26.703125 38.015625 30.859375 
Q 33.796875 35.015625 27.4375 35.015625 
Q 21.234375 35.015625 17.15625 30.90625 
Q 13.09375 26.8125 13.09375 20.65625 
z
" id="ArialMT-56"/>
      </defs>
      <g style="fill:#262626;" transform="translate(182.986595 232.213438)scale(0.1 -0.1)">
       <use xlink:href="#ArialMT-56"/>
       <use x="55.615234" xlink:href="#ArialMT-48"/>
      </g>
     </g>
    </g>
    <g id="xtick_6">
     <g id="line2d_11">
      <path clip-path="url(#p0a4072a363)" d="M 222.070658 218.055625 
L 222.070658 21.935625 
" style="fill:none;stroke:#ffffff;stroke-linecap:round;"/>
     </g>
     <g id="line2d_12"/>
     <g id="text_6">
      <!-- 100 -->
      <defs>
       <path d="M 37.25 0 
L 28.46875 0 
L 28.46875 56 
Q 25.296875 52.984375 20.140625 49.953125 
Q 14.984375 46.921875 10.890625 45.40625 
L 10.890625 53.90625 
Q 18.265625 57.375 23.78125 62.296875 
Q 29.296875 67.234375 31.59375 71.875 
L 37.25 71.875 
z
" id="ArialMT-49"/>
      </defs>
      <g style="fill:#262626;" transform="translate(213.729252 232.213438)scale(0.1 -0.1)">
       <use xlink:href="#ArialMT-49"/>
       <use x="55.615234" xlink:href="#ArialMT-48"/>
       <use x="111.230469" xlink:href="#ArialMT-48"/>
      </g>
     </g>
    </g>
    <g id="xtick_7">
     <g id="line2d_13">
      <path clip-path="url(#p0a4072a363)" d="M 255.593784 218.055625 
L 255.593784 21.935625 
" style="fill:none;stroke:#ffffff;stroke-linecap:round;"/>
     </g>
     <g id="line2d_14"/>
     <g id="text_7">
      <!-- 120 -->
      <g style="fill:#262626;" transform="translate(247.252378 232.213438)scale(0.1 -0.1)">
       <use xlink:href="#ArialMT-49"/>
       <use x="55.615234" xlink:href="#ArialMT-50"/>
       <use x="111.230469" xlink:href="#ArialMT-48"/>
      </g>
     </g>
    </g>
    <g id="text_8">
     <!-- Epochs -->
     <defs>
      <path d="M 7.90625 0 
L 7.90625 71.578125 
L 59.671875 71.578125 
L 59.671875 63.140625 
L 17.390625 63.140625 
L 17.390625 41.21875 
L 56.984375 41.21875 
L 56.984375 32.8125 
L 17.390625 32.8125 
L 17.390625 8.453125 
L 61.328125 8.453125 
L 61.328125 0 
z
" id="ArialMT-69"/>
      <path d="M 6.59375 -19.875 
L 6.59375 51.859375 
L 14.59375 51.859375 
L 14.59375 45.125 
Q 17.4375 49.078125 21 51.046875 
Q 24.5625 53.03125 29.640625 53.03125 
Q 36.28125 53.03125 41.359375 49.609375 
Q 46.4375 46.1875 49.015625 39.953125 
Q 51.609375 33.734375 51.609375 26.3125 
Q 51.609375 18.359375 48.75 11.984375 
Q 45.90625 5.609375 40.453125 2.21875 
Q 35.015625 -1.171875 29 -1.171875 
Q 24.609375 -1.171875 21.109375 0.6875 
Q 17.625 2.546875 15.375 5.375 
L 15.375 -19.875 
z
M 14.546875 25.640625 
Q 14.546875 15.625 18.59375 10.84375 
Q 22.65625 6.0625 28.421875 6.0625 
Q 34.28125 6.0625 38.453125 11.015625 
Q 42.625 15.96875 42.625 26.375 
Q 42.625 36.28125 38.546875 41.203125 
Q 34.46875 46.140625 28.8125 46.140625 
Q 23.1875 46.140625 18.859375 40.890625 
Q 14.546875 35.640625 14.546875 25.640625 
z
" id="ArialMT-112"/>
      <path d="M 3.328125 25.921875 
Q 3.328125 40.328125 11.328125 47.265625 
Q 18.015625 53.03125 27.640625 53.03125 
Q 38.328125 53.03125 45.109375 46.015625 
Q 51.90625 39.015625 51.90625 26.65625 
Q 51.90625 16.65625 48.90625 10.90625 
Q 45.90625 5.171875 40.15625 2 
Q 34.421875 -1.171875 27.640625 -1.171875 
Q 16.75 -1.171875 10.03125 5.8125 
Q 3.328125 12.796875 3.328125 25.921875 
z
M 12.359375 25.921875 
Q 12.359375 15.96875 16.703125 11.015625 
Q 21.046875 6.0625 27.640625 6.0625 
Q 34.1875 6.0625 38.53125 11.03125 
Q 42.875 16.015625 42.875 26.21875 
Q 42.875 35.84375 38.5 40.796875 
Q 34.125 45.75 27.640625 45.75 
Q 21.046875 45.75 16.703125 40.8125 
Q 12.359375 35.890625 12.359375 25.921875 
z
" id="ArialMT-111"/>
      <path d="M 40.4375 19 
L 49.078125 17.875 
Q 47.65625 8.9375 41.8125 3.875 
Q 35.984375 -1.171875 27.484375 -1.171875 
Q 16.84375 -1.171875 10.375 5.78125 
Q 3.90625 12.75 3.90625 25.734375 
Q 3.90625 34.125 6.6875 40.421875 
Q 9.46875 46.734375 15.15625 49.875 
Q 20.84375 53.03125 27.546875 53.03125 
Q 35.984375 53.03125 41.359375 48.75 
Q 46.734375 44.484375 48.25 36.625 
L 39.703125 35.296875 
Q 38.484375 40.53125 35.375 43.15625 
Q 32.28125 45.796875 27.875 45.796875 
Q 21.234375 45.796875 17.078125 41.03125 
Q 12.9375 36.28125 12.9375 25.984375 
Q 12.9375 15.53125 16.9375 10.796875 
Q 20.953125 6.0625 27.390625 6.0625 
Q 32.5625 6.0625 36.03125 9.234375 
Q 39.5 12.40625 40.4375 19 
z
" id="ArialMT-99"/>
      <path d="M 6.59375 0 
L 6.59375 71.578125 
L 15.375 71.578125 
L 15.375 45.90625 
Q 21.53125 53.03125 30.90625 53.03125 
Q 36.671875 53.03125 40.921875 50.75 
Q 45.171875 48.484375 47 44.484375 
Q 48.828125 40.484375 48.828125 32.859375 
L 48.828125 0 
L 40.046875 0 
L 40.046875 32.859375 
Q 40.046875 39.453125 37.1875 42.453125 
Q 34.328125 45.453125 29.109375 45.453125 
Q 25.203125 45.453125 21.75 43.421875 
Q 18.3125 41.40625 16.84375 37.9375 
Q 15.375 34.46875 15.375 28.375 
L 15.375 0 
z
" id="ArialMT-104"/>
      <path d="M 3.078125 15.484375 
L 11.765625 16.84375 
Q 12.5 11.625 15.84375 8.84375 
Q 19.1875 6.0625 25.203125 6.0625 
Q 31.25 6.0625 34.171875 8.515625 
Q 37.109375 10.984375 37.109375 14.3125 
Q 37.109375 17.28125 34.515625 19 
Q 32.71875 20.171875 25.53125 21.96875 
Q 15.875 24.421875 12.140625 26.203125 
Q 8.40625 27.984375 6.46875 31.125 
Q 4.546875 34.28125 4.546875 38.09375 
Q 4.546875 41.546875 6.125 44.5 
Q 7.71875 47.46875 10.453125 49.421875 
Q 12.5 50.921875 16.03125 51.96875 
Q 19.578125 53.03125 23.640625 53.03125 
Q 29.734375 53.03125 34.34375 51.265625 
Q 38.96875 49.515625 41.15625 46.5 
Q 43.359375 43.5 44.1875 38.484375 
L 35.59375 37.3125 
Q 35.015625 41.3125 32.203125 43.546875 
Q 29.390625 45.796875 24.265625 45.796875 
Q 18.21875 45.796875 15.625 43.796875 
Q 13.03125 41.796875 13.03125 39.109375 
Q 13.03125 37.40625 14.109375 36.03125 
Q 15.1875 34.625 17.484375 33.6875 
Q 18.796875 33.203125 25.25 31.453125 
Q 34.578125 28.953125 38.25 27.359375 
Q 41.9375 25.78125 44.03125 22.75 
Q 46.140625 19.734375 46.140625 15.234375 
Q 46.140625 10.84375 43.578125 6.953125 
Q 41.015625 3.078125 36.171875 0.953125 
Q 31.34375 -1.171875 25.25 -1.171875 
Q 15.140625 -1.171875 9.84375 3.03125 
Q 4.546875 7.234375 3.078125 15.484375 
z
" id="ArialMT-115"/>
     </defs>
     <g style="fill:#262626;" transform="translate(140.0325 246.074531)scale(0.11 -0.11)">
      <use xlink:href="#ArialMT-69"/>
      <use x="66.699219" xlink:href="#ArialMT-112"/>
      <use x="122.314453" xlink:href="#ArialMT-111"/>
      <use x="177.929688" xlink:href="#ArialMT-99"/>
      <use x="227.929688" xlink:href="#ArialMT-104"/>
      <use x="283.544922" xlink:href="#ArialMT-115"/>
     </g>
    </g>
   </g>
   <g id="matplotlib.axis_2">
    <g id="ytick_1">
     <g id="line2d_15">
      <path clip-path="url(#p0a4072a363)" d="M 53.281719 216.132427 
L 263.471719 216.132427 
" style="fill:none;stroke:#ffffff;stroke-linecap:round;"/>
     </g>
     <g id="line2d_16"/>
     <g id="text_9">
      <!-- 145.0 -->
      <defs>
       <path d="M 4.15625 18.75 
L 13.375 19.53125 
Q 14.40625 12.796875 18.140625 9.390625 
Q 21.875 6 27.15625 6 
Q 33.5 6 37.890625 10.78125 
Q 42.28125 15.578125 42.28125 23.484375 
Q 42.28125 31 38.0625 35.34375 
Q 33.84375 39.703125 27 39.703125 
Q 22.75 39.703125 19.328125 37.765625 
Q 15.921875 35.84375 13.96875 32.765625 
L 5.71875 33.84375 
L 12.640625 70.609375 
L 48.25 70.609375 
L 48.25 62.203125 
L 19.671875 62.203125 
L 15.828125 42.96875 
Q 22.265625 47.46875 29.34375 47.46875 
Q 38.71875 47.46875 45.15625 40.96875 
Q 51.609375 34.46875 51.609375 24.265625 
Q 51.609375 14.546875 45.953125 7.46875 
Q 39.0625 -1.21875 27.15625 -1.21875 
Q 17.390625 -1.21875 11.203125 4.25 
Q 5.03125 9.71875 4.15625 18.75 
z
" id="ArialMT-53"/>
       <path d="M 9.078125 0 
L 9.078125 10.015625 
L 19.09375 10.015625 
L 19.09375 0 
z
" id="ArialMT-46"/>
      </defs>
      <g style="fill:#262626;" transform="translate(21.259844 219.711334)scale(0.1 -0.1)">
       <use xlink:href="#ArialMT-49"/>
       <use x="55.615234" xlink:href="#ArialMT-52"/>
       <use x="111.230469" xlink:href="#ArialMT-53"/>
       <use x="166.845703" xlink:href="#ArialMT-46"/>
       <use x="194.628906" xlink:href="#ArialMT-48"/>
      </g>
     </g>
    </g>
    <g id="ytick_2">
     <g id="line2d_17">
      <path clip-path="url(#p0a4072a363)" d="M 53.281719 189.073455 
L 263.471719 189.073455 
" style="fill:none;stroke:#ffffff;stroke-linecap:round;"/>
     </g>
     <g id="line2d_18"/>
     <g id="text_10">
      <!-- 147.5 -->
      <defs>
       <path d="M 4.734375 62.203125 
L 4.734375 70.65625 
L 51.078125 70.65625 
L 51.078125 63.8125 
Q 44.234375 56.546875 37.515625 44.484375 
Q 30.8125 32.421875 27.15625 19.671875 
Q 24.515625 10.6875 23.78125 0 
L 14.75 0 
Q 14.890625 8.453125 18.0625 20.40625 
Q 21.234375 32.375 27.171875 43.484375 
Q 33.109375 54.59375 39.796875 62.203125 
z
" id="ArialMT-55"/>
      </defs>
      <g style="fill:#262626;" transform="translate(21.259844 192.652361)scale(0.1 -0.1)">
       <use xlink:href="#ArialMT-49"/>
       <use x="55.615234" xlink:href="#ArialMT-52"/>
       <use x="111.230469" xlink:href="#ArialMT-55"/>
       <use x="166.845703" xlink:href="#ArialMT-46"/>
       <use x="194.628906" xlink:href="#ArialMT-53"/>
      </g>
     </g>
    </g>
    <g id="ytick_3">
     <g id="line2d_19">
      <path clip-path="url(#p0a4072a363)" d="M 53.281719 162.014483 
L 263.471719 162.014483 
" style="fill:none;stroke:#ffffff;stroke-linecap:round;"/>
     </g>
     <g id="line2d_20"/>
     <g id="text_11">
      <!-- 150.0 -->
      <g style="fill:#262626;" transform="translate(21.259844 165.593389)scale(0.1 -0.1)">
       <use xlink:href="#ArialMT-49"/>
       <use x="55.615234" xlink:href="#ArialMT-53"/>
       <use x="111.230469" xlink:href="#ArialMT-48"/>
       <use x="166.845703" xlink:href="#ArialMT-46"/>
       <use x="194.628906" xlink:href="#ArialMT-48"/>
      </g>
     </g>
    </g>
    <g id="ytick_4">
     <g id="line2d_21">
      <path clip-path="url(#p0a4072a363)" d="M 53.281719 134.955511 
L 263.471719 134.955511 
" style="fill:none;stroke:#ffffff;stroke-linecap:round;"/>
     </g>
     <g id="line2d_22"/>
     <g id="text_12">
      <!-- 152.5 -->
      <g style="fill:#262626;" transform="translate(21.259844 138.534417)scale(0.1 -0.1)">
       <use xlink:href="#ArialMT-49"/>
       <use x="55.615234" xlink:href="#ArialMT-53"/>
       <use x="111.230469" xlink:href="#ArialMT-50"/>
       <use x="166.845703" xlink:href="#ArialMT-46"/>
       <use x="194.628906" xlink:href="#ArialMT-53"/>
      </g>
     </g>
    </g>
    <g id="ytick_5">
     <g id="line2d_23">
      <path clip-path="url(#p0a4072a363)" d="M 53.281719 107.896539 
L 263.471719 107.896539 
" style="fill:none;stroke:#ffffff;stroke-linecap:round;"/>
     </g>
     <g id="line2d_24"/>
     <g id="text_13">
      <!-- 155.0 -->
      <g style="fill:#262626;" transform="translate(21.259844 111.475445)scale(0.1 -0.1)">
       <use xlink:href="#ArialMT-49"/>
       <use x="55.615234" xlink:href="#ArialMT-53"/>
       <use x="111.230469" xlink:href="#ArialMT-53"/>
       <use x="166.845703" xlink:href="#ArialMT-46"/>
       <use x="194.628906" xlink:href="#ArialMT-48"/>
      </g>
     </g>
    </g>
    <g id="ytick_6">
     <g id="line2d_25">
      <path clip-path="url(#p0a4072a363)" d="M 53.281719 80.837567 
L 263.471719 80.837567 
" style="fill:none;stroke:#ffffff;stroke-linecap:round;"/>
     </g>
     <g id="line2d_26"/>
     <g id="text_14">
      <!-- 157.5 -->
      <g style="fill:#262626;" transform="translate(21.259844 84.416473)scale(0.1 -0.1)">
       <use xlink:href="#ArialMT-49"/>
       <use x="55.615234" xlink:href="#ArialMT-53"/>
       <use x="111.230469" xlink:href="#ArialMT-55"/>
       <use x="166.845703" xlink:href="#ArialMT-46"/>
       <use x="194.628906" xlink:href="#ArialMT-53"/>
      </g>
     </g>
    </g>
    <g id="ytick_7">
     <g id="line2d_27">
      <path clip-path="url(#p0a4072a363)" d="M 53.281719 53.778595 
L 263.471719 53.778595 
" style="fill:none;stroke:#ffffff;stroke-linecap:round;"/>
     </g>
     <g id="line2d_28"/>
     <g id="text_15">
      <!-- 160.0 -->
      <g style="fill:#262626;" transform="translate(21.259844 57.357501)scale(0.1 -0.1)">
       <use xlink:href="#ArialMT-49"/>
       <use x="55.615234" xlink:href="#ArialMT-54"/>
       <use x="111.230469" xlink:href="#ArialMT-48"/>
       <use x="166.845703" xlink:href="#ArialMT-46"/>
       <use x="194.628906" xlink:href="#ArialMT-48"/>
      </g>
     </g>
    </g>
    <g id="ytick_8">
     <g id="line2d_29">
      <path clip-path="url(#p0a4072a363)" d="M 53.281719 26.719623 
L 263.471719 26.719623 
" style="fill:none;stroke:#ffffff;stroke-linecap:round;"/>
     </g>
     <g id="line2d_30"/>
     <g id="text_16">
      <!-- 162.5 -->
      <g style="fill:#262626;" transform="translate(21.259844 30.298529)scale(0.1 -0.1)">
       <use xlink:href="#ArialMT-49"/>
       <use x="55.615234" xlink:href="#ArialMT-54"/>
       <use x="111.230469" xlink:href="#ArialMT-50"/>
       <use x="166.845703" xlink:href="#ArialMT-46"/>
       <use x="194.628906" xlink:href="#ArialMT-53"/>
      </g>
     </g>
    </g>
    <g id="text_17">
     <!-- NLL + KL -->
     <defs>
      <path d="M 7.625 0 
L 7.625 71.578125 
L 17.328125 71.578125 
L 54.9375 15.375 
L 54.9375 71.578125 
L 64.015625 71.578125 
L 64.015625 0 
L 54.296875 0 
L 16.703125 56.25 
L 16.703125 0 
z
" id="ArialMT-78"/>
      <path d="M 7.328125 0 
L 7.328125 71.578125 
L 16.796875 71.578125 
L 16.796875 8.453125 
L 52.046875 8.453125 
L 52.046875 0 
z
" id="ArialMT-76"/>
      <path id="ArialMT-32"/>
      <path d="M 25.046875 11.578125 
L 25.046875 31.203125 
L 5.5625 31.203125 
L 5.5625 39.40625 
L 25.046875 39.40625 
L 25.046875 58.890625 
L 33.34375 58.890625 
L 33.34375 39.40625 
L 52.828125 39.40625 
L 52.828125 31.203125 
L 33.34375 31.203125 
L 33.34375 11.578125 
z
" id="ArialMT-43"/>
      <path d="M 7.328125 0 
L 7.328125 71.578125 
L 16.796875 71.578125 
L 16.796875 36.078125 
L 52.34375 71.578125 
L 65.1875 71.578125 
L 35.15625 42.578125 
L 66.5 0 
L 54 0 
L 28.515625 36.234375 
L 16.796875 24.8125 
L 16.796875 0 
z
" id="ArialMT-75"/>
     </defs>
     <g style="fill:#262626;" transform="translate(15.073594 143.077578)rotate(-90)scale(0.11 -0.11)">
      <use xlink:href="#ArialMT-78"/>
      <use x="72.216797" xlink:href="#ArialMT-76"/>
      <use x="127.832031" xlink:href="#ArialMT-76"/>
      <use x="183.400391" xlink:href="#ArialMT-32"/>
      <use x="211.183594" xlink:href="#ArialMT-43"/>
      <use x="269.582031" xlink:href="#ArialMT-32"/>
      <use x="297.365234" xlink:href="#ArialMT-75"/>
      <use x="364.064453" xlink:href="#ArialMT-76"/>
     </g>
    </g>
   </g>
   <g id="line2d_31">
    <path clip-path="url(#p0a4072a363)" d="M 62.83581 30.85017 
L 64.511966 50.714152 
L 66.188122 59.358079 
L 67.864279 68.350692 
L 69.540435 84.853034 
L 71.216591 97.307925 
L 72.892747 103.219519 
L 74.568904 95.589316 
L 76.24506 112.40705 
L 77.921216 126.776628 
L 79.597373 130.016745 
L 81.273529 135.234527 
L 82.949685 139.989294 
L 84.625842 135.266099 
L 86.301998 153.624939 
L 87.978154 159.285709 
L 89.65431 154.374203 
L 91.330467 165.138179 
L 93.006623 157.883875 
L 94.682779 166.525535 
L 96.358936 167.177441 
L 98.035092 161.707491 
L 99.711248 169.365441 
L 101.387405 167.949416 
L 103.063561 167.087988 
L 104.739717 179.843985 
L 106.415873 183.299782 
L 108.09203 185.835841 
L 109.768186 182.137395 
L 111.444342 179.620746 
L 113.120499 188.138893 
L 114.796655 179.56901 
L 116.472811 173.903445 
L 118.148968 190.366876 
L 119.825124 188.527304 
L 121.50128 188.872072 
L 123.177436 185.062862 
L 124.853593 178.254278 
L 126.529749 184.701138 
L 128.205905 188.394548 
L 129.882062 190.233459 
L 131.558218 185.709054 
L 133.234374 195.324435 
L 134.910531 192.359164 
L 136.586687 184.958291 
L 138.262843 186.786608 
L 139.938999 185.167371 
L 141.615156 188.862256 
L 143.291312 190.413729 
L 144.967468 197.426266 
L 146.643625 194.119878 
L 148.319781 181.013561 
L 149.995937 194.643814 
L 151.672094 191.398693 
L 153.34825 199.866766 
L 155.024406 198.929533 
L 156.700562 193.726219 
L 158.376719 189.917019 
L 160.052875 196.637692 
L 161.729031 201.789653 
L 163.405188 196.451199 
L 165.081344 188.818286 
L 166.7575 198.744939 
L 168.433657 198.730351 
L 170.109813 202.577392 
L 171.785969 196.676538 
L 173.462125 203.082195 
L 175.138282 197.883119 
L 176.814438 202.340908 
L 178.490594 181.135688 
L 180.166751 195.495265 
L 181.842907 199.997922 
L 183.519063 194.292235 
L 185.19522 204.365664 
L 186.871376 195.780705 
L 188.547532 194.373735 
L 190.223688 186.714023 
L 191.899845 196.799729 
L 193.576001 202.212974 
L 195.252157 190.038705 
L 196.928314 202.318726 
L 198.60447 198.524254 
L 200.280626 186.109737 
L 201.956783 200.348551 
L 203.632939 198.846395 
L 205.309095 209.14108 
L 206.985251 189.464323 
L 208.661408 190.683892 
L 210.337564 194.949306 
L 212.01372 207.699357 
L 213.689877 199.434079 
L 215.366033 203.414576 
L 217.042189 205.091895 
L 218.718346 199.891175 
L 220.394502 203.487811 
L 222.070658 186.702077 
L 223.746814 199.337531 
L 225.422971 198.428073 
L 227.099127 200.419218 
L 228.775283 202.479831 
L 230.45144 197.898045 
L 232.127596 205.01356 
L 233.803752 204.046387 
L 235.479909 204.579888 
L 237.156065 205.117549 
L 238.832221 199.873894 
L 240.508377 204.052619 
L 242.184534 206.24196 
L 243.86069 201.679477 
L 245.536846 202.78291 
L 247.213003 195.13076 
L 248.889159 202.347821 
L 250.565315 208.473529 
L 252.241472 185.774734 
L 253.917628 197.852192 
" style="fill:none;stroke:#4c72b0;stroke-linecap:round;stroke-width:1.75;"/>
   </g>
   <g id="patch_3">
    <path d="M 53.281719 218.055625 
L 53.281719 21.935625 
" style="fill:none;"/>
   </g>
   <g id="patch_4">
    <path d="M 263.471719 218.055625 
L 263.471719 21.935625 
" style="fill:none;"/>
   </g>
   <g id="patch_5">
    <path d="M 53.281719 218.055625 
L 263.471719 218.055625 
" style="fill:none;"/>
   </g>
   <g id="patch_6">
    <path d="M 53.281719 21.935625 
L 263.471719 21.935625 
" style="fill:none;"/>
   </g>
   <g id="text_18">
    <!-- Total Loss -->
    <defs>
     <path d="M 25.921875 0 
L 25.921875 63.140625 
L 2.34375 63.140625 
L 2.34375 71.578125 
L 59.078125 71.578125 
L 59.078125 63.140625 
L 35.40625 63.140625 
L 35.40625 0 
z
" id="ArialMT-84"/>
     <path d="M 25.78125 7.859375 
L 27.046875 0.09375 
Q 23.34375 -0.6875 20.40625 -0.6875 
Q 15.625 -0.6875 12.984375 0.828125 
Q 10.359375 2.34375 9.28125 4.8125 
Q 8.203125 7.28125 8.203125 15.1875 
L 8.203125 45.015625 
L 1.765625 45.015625 
L 1.765625 51.859375 
L 8.203125 51.859375 
L 8.203125 64.703125 
L 16.9375 69.96875 
L 16.9375 51.859375 
L 25.78125 51.859375 
L 25.78125 45.015625 
L 16.9375 45.015625 
L 16.9375 14.703125 
Q 16.9375 10.9375 17.40625 9.859375 
Q 17.875 8.796875 18.921875 8.15625 
Q 19.96875 7.515625 21.921875 7.515625 
Q 23.390625 7.515625 25.78125 7.859375 
z
" id="ArialMT-116"/>
     <path d="M 40.4375 6.390625 
Q 35.546875 2.25 31.03125 0.53125 
Q 26.515625 -1.171875 21.34375 -1.171875 
Q 12.796875 -1.171875 8.203125 3 
Q 3.609375 7.171875 3.609375 13.671875 
Q 3.609375 17.484375 5.34375 20.625 
Q 7.078125 23.78125 9.890625 25.6875 
Q 12.703125 27.59375 16.21875 28.5625 
Q 18.796875 29.25 24.03125 29.890625 
Q 34.671875 31.15625 39.703125 32.90625 
Q 39.75 34.71875 39.75 35.203125 
Q 39.75 40.578125 37.25 42.78125 
Q 33.890625 45.75 27.25 45.75 
Q 21.046875 45.75 18.09375 43.578125 
Q 15.140625 41.40625 13.71875 35.890625 
L 5.125 37.0625 
Q 6.296875 42.578125 8.984375 45.96875 
Q 11.671875 49.359375 16.75 51.1875 
Q 21.828125 53.03125 28.515625 53.03125 
Q 35.15625 53.03125 39.296875 51.46875 
Q 43.453125 49.90625 45.40625 47.53125 
Q 47.359375 45.171875 48.140625 41.546875 
Q 48.578125 39.3125 48.578125 33.453125 
L 48.578125 21.734375 
Q 48.578125 9.46875 49.140625 6.21875 
Q 49.703125 2.984375 51.375 0 
L 42.1875 0 
Q 40.828125 2.734375 40.4375 6.390625 
z
M 39.703125 26.03125 
Q 34.90625 24.078125 25.34375 22.703125 
Q 19.921875 21.921875 17.671875 20.9375 
Q 15.4375 19.96875 14.203125 18.09375 
Q 12.984375 16.21875 12.984375 13.921875 
Q 12.984375 10.40625 15.640625 8.0625 
Q 18.3125 5.71875 23.4375 5.71875 
Q 28.515625 5.71875 32.46875 7.9375 
Q 36.421875 10.15625 38.28125 14.015625 
Q 39.703125 17 39.703125 22.796875 
z
" id="ArialMT-97"/>
     <path d="M 6.390625 0 
L 6.390625 71.578125 
L 15.1875 71.578125 
L 15.1875 0 
z
" id="ArialMT-108"/>
    </defs>
    <g style="fill:#262626;" transform="translate(130.709219 15.935625)scale(0.12 -0.12)">
     <use xlink:href="#ArialMT-84"/>
     <use x="60.912109" xlink:href="#ArialMT-111"/>
     <use x="116.527344" xlink:href="#ArialMT-116"/>
     <use x="144.310547" xlink:href="#ArialMT-97"/>
     <use x="199.925781" xlink:href="#ArialMT-108"/>
     <use x="222.142578" xlink:href="#ArialMT-32"/>
     <use x="249.925781" xlink:href="#ArialMT-76"/>
     <use x="305.541016" xlink:href="#ArialMT-111"/>
     <use x="361.15625" xlink:href="#ArialMT-115"/>
     <use x="411.15625" xlink:href="#ArialMT-115"/>
    </g>
   </g>
  </g>
  <g id="axes_2">
   <g id="patch_7">
    <path d="M 333.331719 218.055625 
L 543.521719 218.055625 
L 543.521719 21.935625 
L 333.331719 21.935625 
z
" style="fill:#eaeaf2;"/>
   </g>
   <g id="matplotlib.axis_3">
    <g id="xtick_8">
     <g id="line2d_32">
      <path clip-path="url(#p4c7e80e986)" d="M 334.505028 218.055625 
L 334.505028 21.935625 
" style="fill:none;stroke:#ffffff;stroke-linecap:round;"/>
     </g>
     <g id="line2d_33"/>
     <g id="text_19">
      <!-- 0 -->
      <g style="fill:#262626;" transform="translate(331.724559 232.213438)scale(0.1 -0.1)">
       <use xlink:href="#ArialMT-48"/>
      </g>
     </g>
    </g>
    <g id="xtick_9">
     <g id="line2d_34">
      <path clip-path="url(#p4c7e80e986)" d="M 368.028154 218.055625 
L 368.028154 21.935625 
" style="fill:none;stroke:#ffffff;stroke-linecap:round;"/>
     </g>
     <g id="line2d_35"/>
     <g id="text_20">
      <!-- 20 -->
      <g style="fill:#262626;" transform="translate(362.467217 232.213438)scale(0.1 -0.1)">
       <use xlink:href="#ArialMT-50"/>
       <use x="55.615234" xlink:href="#ArialMT-48"/>
      </g>
     </g>
    </g>
    <g id="xtick_10">
     <g id="line2d_36">
      <path clip-path="url(#p4c7e80e986)" d="M 401.55128 218.055625 
L 401.55128 21.935625 
" style="fill:none;stroke:#ffffff;stroke-linecap:round;"/>
     </g>
     <g id="line2d_37"/>
     <g id="text_21">
      <!-- 40 -->
      <g style="fill:#262626;" transform="translate(395.990343 232.213438)scale(0.1 -0.1)">
       <use xlink:href="#ArialMT-52"/>
       <use x="55.615234" xlink:href="#ArialMT-48"/>
      </g>
     </g>
    </g>
    <g id="xtick_11">
     <g id="line2d_38">
      <path clip-path="url(#p4c7e80e986)" d="M 435.074406 218.055625 
L 435.074406 21.935625 
" style="fill:none;stroke:#ffffff;stroke-linecap:round;"/>
     </g>
     <g id="line2d_39"/>
     <g id="text_22">
      <!-- 60 -->
      <g style="fill:#262626;" transform="translate(429.513469 232.213438)scale(0.1 -0.1)">
       <use xlink:href="#ArialMT-54"/>
       <use x="55.615234" xlink:href="#ArialMT-48"/>
      </g>
     </g>
    </g>
    <g id="xtick_12">
     <g id="line2d_40">
      <path clip-path="url(#p4c7e80e986)" d="M 468.597532 218.055625 
L 468.597532 21.935625 
" style="fill:none;stroke:#ffffff;stroke-linecap:round;"/>
     </g>
     <g id="line2d_41"/>
     <g id="text_23">
      <!-- 80 -->
      <g style="fill:#262626;" transform="translate(463.036595 232.213438)scale(0.1 -0.1)">
       <use xlink:href="#ArialMT-56"/>
       <use x="55.615234" xlink:href="#ArialMT-48"/>
      </g>
     </g>
    </g>
    <g id="xtick_13">
     <g id="line2d_42">
      <path clip-path="url(#p4c7e80e986)" d="M 502.120658 218.055625 
L 502.120658 21.935625 
" style="fill:none;stroke:#ffffff;stroke-linecap:round;"/>
     </g>
     <g id="line2d_43"/>
     <g id="text_24">
      <!-- 100 -->
      <g style="fill:#262626;" transform="translate(493.779252 232.213438)scale(0.1 -0.1)">
       <use xlink:href="#ArialMT-49"/>
       <use x="55.615234" xlink:href="#ArialMT-48"/>
       <use x="111.230469" xlink:href="#ArialMT-48"/>
      </g>
     </g>
    </g>
    <g id="xtick_14">
     <g id="line2d_44">
      <path clip-path="url(#p4c7e80e986)" d="M 535.643784 218.055625 
L 535.643784 21.935625 
" style="fill:none;stroke:#ffffff;stroke-linecap:round;"/>
     </g>
     <g id="line2d_45"/>
     <g id="text_25">
      <!-- 120 -->
      <g style="fill:#262626;" transform="translate(527.302378 232.213438)scale(0.1 -0.1)">
       <use xlink:href="#ArialMT-49"/>
       <use x="55.615234" xlink:href="#ArialMT-50"/>
       <use x="111.230469" xlink:href="#ArialMT-48"/>
      </g>
     </g>
    </g>
    <g id="text_26">
     <!-- Epochs -->
     <g style="fill:#262626;" transform="translate(420.0825 246.074531)scale(0.11 -0.11)">
      <use xlink:href="#ArialMT-69"/>
      <use x="66.699219" xlink:href="#ArialMT-112"/>
      <use x="122.314453" xlink:href="#ArialMT-111"/>
      <use x="177.929688" xlink:href="#ArialMT-99"/>
      <use x="227.929688" xlink:href="#ArialMT-104"/>
      <use x="283.544922" xlink:href="#ArialMT-115"/>
     </g>
    </g>
   </g>
   <g id="matplotlib.axis_4">
    <g id="ytick_9">
     <g id="line2d_46">
      <path clip-path="url(#p4c7e80e986)" d="M 333.331719 198.523232 
L 543.521719 198.523232 
" style="fill:none;stroke:#ffffff;stroke-linecap:round;"/>
     </g>
     <g id="line2d_47"/>
     <g id="text_27">
      <!-- 140.0 -->
      <g style="fill:#262626;" transform="translate(301.309844 202.102138)scale(0.1 -0.1)">
       <use xlink:href="#ArialMT-49"/>
       <use x="55.615234" xlink:href="#ArialMT-52"/>
       <use x="111.230469" xlink:href="#ArialMT-48"/>
       <use x="166.845703" xlink:href="#ArialMT-46"/>
       <use x="194.628906" xlink:href="#ArialMT-48"/>
      </g>
     </g>
    </g>
    <g id="ytick_10">
     <g id="line2d_48">
      <path clip-path="url(#p4c7e80e986)" d="M 333.331719 173.105327 
L 543.521719 173.105327 
" style="fill:none;stroke:#ffffff;stroke-linecap:round;"/>
     </g>
     <g id="line2d_49"/>
     <g id="text_28">
      <!-- 142.5 -->
      <g style="fill:#262626;" transform="translate(301.309844 176.684233)scale(0.1 -0.1)">
       <use xlink:href="#ArialMT-49"/>
       <use x="55.615234" xlink:href="#ArialMT-52"/>
       <use x="111.230469" xlink:href="#ArialMT-50"/>
       <use x="166.845703" xlink:href="#ArialMT-46"/>
       <use x="194.628906" xlink:href="#ArialMT-53"/>
      </g>
     </g>
    </g>
    <g id="ytick_11">
     <g id="line2d_50">
      <path clip-path="url(#p4c7e80e986)" d="M 333.331719 147.687422 
L 543.521719 147.687422 
" style="fill:none;stroke:#ffffff;stroke-linecap:round;"/>
     </g>
     <g id="line2d_51"/>
     <g id="text_29">
      <!-- 145.0 -->
      <g style="fill:#262626;" transform="translate(301.309844 151.266328)scale(0.1 -0.1)">
       <use xlink:href="#ArialMT-49"/>
       <use x="55.615234" xlink:href="#ArialMT-52"/>
       <use x="111.230469" xlink:href="#ArialMT-53"/>
       <use x="166.845703" xlink:href="#ArialMT-46"/>
       <use x="194.628906" xlink:href="#ArialMT-48"/>
      </g>
     </g>
    </g>
    <g id="ytick_12">
     <g id="line2d_52">
      <path clip-path="url(#p4c7e80e986)" d="M 333.331719 122.269516 
L 543.521719 122.269516 
" style="fill:none;stroke:#ffffff;stroke-linecap:round;"/>
     </g>
     <g id="line2d_53"/>
     <g id="text_30">
      <!-- 147.5 -->
      <g style="fill:#262626;" transform="translate(301.309844 125.848423)scale(0.1 -0.1)">
       <use xlink:href="#ArialMT-49"/>
       <use x="55.615234" xlink:href="#ArialMT-52"/>
       <use x="111.230469" xlink:href="#ArialMT-55"/>
       <use x="166.845703" xlink:href="#ArialMT-46"/>
       <use x="194.628906" xlink:href="#ArialMT-53"/>
      </g>
     </g>
    </g>
    <g id="ytick_13">
     <g id="line2d_54">
      <path clip-path="url(#p4c7e80e986)" d="M 333.331719 96.851611 
L 543.521719 96.851611 
" style="fill:none;stroke:#ffffff;stroke-linecap:round;"/>
     </g>
     <g id="line2d_55"/>
     <g id="text_31">
      <!-- 150.0 -->
      <g style="fill:#262626;" transform="translate(301.309844 100.430518)scale(0.1 -0.1)">
       <use xlink:href="#ArialMT-49"/>
       <use x="55.615234" xlink:href="#ArialMT-53"/>
       <use x="111.230469" xlink:href="#ArialMT-48"/>
       <use x="166.845703" xlink:href="#ArialMT-46"/>
       <use x="194.628906" xlink:href="#ArialMT-48"/>
      </g>
     </g>
    </g>
    <g id="ytick_14">
     <g id="line2d_56">
      <path clip-path="url(#p4c7e80e986)" d="M 333.331719 71.433706 
L 543.521719 71.433706 
" style="fill:none;stroke:#ffffff;stroke-linecap:round;"/>
     </g>
     <g id="line2d_57"/>
     <g id="text_32">
      <!-- 152.5 -->
      <g style="fill:#262626;" transform="translate(301.309844 75.012612)scale(0.1 -0.1)">
       <use xlink:href="#ArialMT-49"/>
       <use x="55.615234" xlink:href="#ArialMT-53"/>
       <use x="111.230469" xlink:href="#ArialMT-50"/>
       <use x="166.845703" xlink:href="#ArialMT-46"/>
       <use x="194.628906" xlink:href="#ArialMT-53"/>
      </g>
     </g>
    </g>
    <g id="ytick_15">
     <g id="line2d_58">
      <path clip-path="url(#p4c7e80e986)" d="M 333.331719 46.015801 
L 543.521719 46.015801 
" style="fill:none;stroke:#ffffff;stroke-linecap:round;"/>
     </g>
     <g id="line2d_59"/>
     <g id="text_33">
      <!-- 155.0 -->
      <g style="fill:#262626;" transform="translate(301.309844 49.594707)scale(0.1 -0.1)">
       <use xlink:href="#ArialMT-49"/>
       <use x="55.615234" xlink:href="#ArialMT-53"/>
       <use x="111.230469" xlink:href="#ArialMT-53"/>
       <use x="166.845703" xlink:href="#ArialMT-46"/>
       <use x="194.628906" xlink:href="#ArialMT-48"/>
      </g>
     </g>
    </g>
    <g id="text_34">
     <!-- NLL -->
     <g style="fill:#262626;" transform="translate(295.123594 130.084688)rotate(-90)scale(0.11 -0.11)">
      <use xlink:href="#ArialMT-78"/>
      <use x="72.216797" xlink:href="#ArialMT-76"/>
      <use x="127.832031" xlink:href="#ArialMT-76"/>
     </g>
    </g>
   </g>
   <g id="line2d_60">
    <path clip-path="url(#p4c7e80e986)" d="M 342.88581 30.85017 
L 344.561966 50.296361 
L 346.238122 58.385098 
L 347.914279 65.655264 
L 349.590435 85.685568 
L 351.266591 94.462269 
L 352.942747 101.569829 
L 354.618904 92.860323 
L 356.29506 112.940411 
L 357.971216 126.09896 
L 359.647373 129.828561 
L 361.323529 133.714609 
L 362.999685 138.00197 
L 364.675842 135.799665 
L 366.351998 153.727202 
L 368.028154 155.911371 
L 369.70431 155.852111 
L 371.380467 163.721825 
L 373.056623 158.618394 
L 374.732779 166.692488 
L 376.408936 169.080094 
L 378.085092 158.884531 
L 379.761248 169.839673 
L 381.437405 166.968257 
L 383.113561 168.832972 
L 384.789717 178.337411 
L 386.465873 182.433655 
L 388.14203 184.718471 
L 389.818186 182.640491 
L 391.494342 179.292428 
L 393.170499 187.776657 
L 394.846655 181.180226 
L 396.522811 174.923565 
L 398.198968 187.871785 
L 399.875124 188.430383 
L 401.55128 188.438829 
L 403.227436 186.871018 
L 404.903593 177.861791 
L 406.579749 185.080797 
L 408.255905 189.371994 
L 409.932062 190.805134 
L 411.608218 185.395943 
L 413.284374 195.839325 
L 414.960531 193.740337 
L 416.636687 186.761309 
L 418.312843 186.002218 
L 419.988999 187.592639 
L 421.665156 189.95812 
L 423.341312 193.122001 
L 425.017468 196.891881 
L 426.693625 195.982796 
L 428.369781 181.349532 
L 430.045937 196.812231 
L 431.722094 192.538674 
L 433.39825 200.153238 
L 435.074406 197.349532 
L 436.750562 196.083906 
L 438.426719 190.48189 
L 440.102875 196.923111 
L 441.779031 201.843764 
L 443.455188 197.774034 
L 445.131344 191.167012 
L 446.8075 199.495625 
L 448.483657 198.511658 
L 450.159813 202.020009 
L 451.835969 198.958261 
L 453.512125 203.064132 
L 455.188282 201.401663 
L 456.864438 203.346506 
L 458.540594 182.159432 
L 460.216751 197.591436 
L 461.892907 202.479649 
L 463.569063 197.432957 
L 465.24522 204.186225 
L 466.921376 197.283685 
L 468.597532 195.494314 
L 470.273688 189.358817 
L 471.949845 199.94395 
L 473.626001 204.153495 
L 475.302157 193.121752 
L 476.978314 203.607429 
L 478.65447 202.748466 
L 480.330626 188.154379 
L 482.006783 200.555808 
L 483.682939 201.511561 
L 485.359095 208.748577 
L 487.035251 190.449059 
L 488.711408 193.412382 
L 490.387564 197.839549 
L 492.06372 207.186717 
L 493.739877 203.430689 
L 495.416033 205.712861 
L 497.092189 205.845495 
L 498.768346 202.668298 
L 500.444502 206.236259 
L 502.120658 187.168852 
L 503.796814 204.011201 
L 505.472971 201.125971 
L 507.149127 201.285479 
L 508.825283 204.51133 
L 510.50144 200.260347 
L 512.177596 207.044602 
L 513.853752 204.053775 
L 515.529909 205.334613 
L 517.206065 206.619743 
L 518.882221 203.598073 
L 520.558377 205.568889 
L 522.234534 209.028009 
L 523.91069 205.542672 
L 525.586846 204.693041 
L 527.263003 198.812463 
L 528.939159 205.2065 
L 530.615315 209.14108 
L 532.291472 189.816642 
L 533.967628 200.49357 
" style="fill:none;stroke:#4c72b0;stroke-linecap:round;stroke-width:1.75;"/>
   </g>
   <g id="patch_8">
    <path d="M 333.331719 218.055625 
L 333.331719 21.935625 
" style="fill:none;"/>
   </g>
   <g id="patch_9">
    <path d="M 543.521719 218.055625 
L 543.521719 21.935625 
" style="fill:none;"/>
   </g>
   <g id="patch_10">
    <path d="M 333.331719 218.055625 
L 543.521719 218.055625 
" style="fill:none;"/>
   </g>
   <g id="patch_11">
    <path d="M 333.331719 21.935625 
L 543.521719 21.935625 
" style="fill:none;"/>
   </g>
   <g id="text_35">
    <!-- Reconstruction Loss -->
    <defs>
     <path d="M 7.859375 0 
L 7.859375 71.578125 
L 39.59375 71.578125 
Q 49.171875 71.578125 54.140625 69.640625 
Q 59.125 67.71875 62.109375 62.828125 
Q 65.09375 57.953125 65.09375 52.046875 
Q 65.09375 44.4375 60.15625 39.203125 
Q 55.21875 33.984375 44.921875 32.5625 
Q 48.6875 30.765625 50.640625 29 
Q 54.78125 25.203125 58.5 19.484375 
L 70.953125 0 
L 59.03125 0 
L 49.5625 14.890625 
Q 45.40625 21.34375 42.71875 24.75 
Q 40.046875 28.171875 37.921875 29.53125 
Q 35.796875 30.90625 33.59375 31.453125 
Q 31.984375 31.78125 28.328125 31.78125 
L 17.328125 31.78125 
L 17.328125 0 
z
M 17.328125 39.984375 
L 37.703125 39.984375 
Q 44.1875 39.984375 47.84375 41.328125 
Q 51.515625 42.671875 53.421875 45.625 
Q 55.328125 48.578125 55.328125 52.046875 
Q 55.328125 57.125 51.640625 60.390625 
Q 47.953125 63.671875 39.984375 63.671875 
L 17.328125 63.671875 
z
" id="ArialMT-82"/>
     <path d="M 42.09375 16.703125 
L 51.171875 15.578125 
Q 49.03125 7.625 43.21875 3.21875 
Q 37.40625 -1.171875 28.375 -1.171875 
Q 17 -1.171875 10.328125 5.828125 
Q 3.65625 12.84375 3.65625 25.484375 
Q 3.65625 38.578125 10.390625 45.796875 
Q 17.140625 53.03125 27.875 53.03125 
Q 38.28125 53.03125 44.875 45.953125 
Q 51.46875 38.875 51.46875 26.03125 
Q 51.46875 25.25 51.421875 23.6875 
L 12.75 23.6875 
Q 13.234375 15.140625 17.578125 10.59375 
Q 21.921875 6.0625 28.421875 6.0625 
Q 33.25 6.0625 36.671875 8.59375 
Q 40.09375 11.140625 42.09375 16.703125 
z
M 13.234375 30.90625 
L 42.1875 30.90625 
Q 41.609375 37.453125 38.875 40.71875 
Q 34.671875 45.796875 27.984375 45.796875 
Q 21.921875 45.796875 17.796875 41.75 
Q 13.671875 37.703125 13.234375 30.90625 
z
" id="ArialMT-101"/>
     <path d="M 6.59375 0 
L 6.59375 51.859375 
L 14.5 51.859375 
L 14.5 44.484375 
Q 20.21875 53.03125 31 53.03125 
Q 35.6875 53.03125 39.625 51.34375 
Q 43.5625 49.65625 45.515625 46.921875 
Q 47.46875 44.1875 48.25 40.4375 
Q 48.734375 37.984375 48.734375 31.890625 
L 48.734375 0 
L 39.9375 0 
L 39.9375 31.546875 
Q 39.9375 36.921875 38.90625 39.578125 
Q 37.890625 42.234375 35.28125 43.8125 
Q 32.671875 45.40625 29.15625 45.40625 
Q 23.53125 45.40625 19.453125 41.84375 
Q 15.375 38.28125 15.375 28.328125 
L 15.375 0 
z
" id="ArialMT-110"/>
     <path d="M 6.5 0 
L 6.5 51.859375 
L 14.40625 51.859375 
L 14.40625 44 
Q 17.4375 49.515625 20 51.265625 
Q 22.5625 53.03125 25.640625 53.03125 
Q 30.078125 53.03125 34.671875 50.203125 
L 31.640625 42.046875 
Q 28.421875 43.953125 25.203125 43.953125 
Q 22.3125 43.953125 20.015625 42.21875 
Q 17.71875 40.484375 16.75 37.40625 
Q 15.28125 32.71875 15.28125 27.15625 
L 15.28125 0 
z
" id="ArialMT-114"/>
     <path d="M 40.578125 0 
L 40.578125 7.625 
Q 34.515625 -1.171875 24.125 -1.171875 
Q 19.53125 -1.171875 15.546875 0.578125 
Q 11.578125 2.34375 9.640625 5 
Q 7.71875 7.671875 6.9375 11.53125 
Q 6.390625 14.109375 6.390625 19.734375 
L 6.390625 51.859375 
L 15.1875 51.859375 
L 15.1875 23.09375 
Q 15.1875 16.21875 15.71875 13.8125 
Q 16.546875 10.359375 19.234375 8.375 
Q 21.921875 6.390625 25.875 6.390625 
Q 29.828125 6.390625 33.296875 8.421875 
Q 36.765625 10.453125 38.203125 13.9375 
Q 39.65625 17.4375 39.65625 24.078125 
L 39.65625 51.859375 
L 48.4375 51.859375 
L 48.4375 0 
z
" id="ArialMT-117"/>
     <path d="M 6.640625 61.46875 
L 6.640625 71.578125 
L 15.4375 71.578125 
L 15.4375 61.46875 
z
M 6.640625 0 
L 6.640625 51.859375 
L 15.4375 51.859375 
L 15.4375 0 
z
" id="ArialMT-105"/>
    </defs>
    <g style="fill:#262626;" transform="translate(384.069531 15.935625)scale(0.12 -0.12)">
     <use xlink:href="#ArialMT-82"/>
     <use x="72.216797" xlink:href="#ArialMT-101"/>
     <use x="127.832031" xlink:href="#ArialMT-99"/>
     <use x="177.832031" xlink:href="#ArialMT-111"/>
     <use x="233.447266" xlink:href="#ArialMT-110"/>
     <use x="289.0625" xlink:href="#ArialMT-115"/>
     <use x="339.0625" xlink:href="#ArialMT-116"/>
     <use x="366.845703" xlink:href="#ArialMT-114"/>
     <use x="400.146484" xlink:href="#ArialMT-117"/>
     <use x="455.761719" xlink:href="#ArialMT-99"/>
     <use x="505.761719" xlink:href="#ArialMT-116"/>
     <use x="533.544922" xlink:href="#ArialMT-105"/>
     <use x="555.761719" xlink:href="#ArialMT-111"/>
     <use x="611.376953" xlink:href="#ArialMT-110"/>
     <use x="666.992188" xlink:href="#ArialMT-32"/>
     <use x="694.775391" xlink:href="#ArialMT-76"/>
     <use x="750.390625" xlink:href="#ArialMT-111"/>
     <use x="806.005859" xlink:href="#ArialMT-115"/>
     <use x="856.005859" xlink:href="#ArialMT-115"/>
    </g>
   </g>
  </g>
  <g id="axes_3">
   <g id="patch_12">
    <path d="M 613.381719 218.055625 
L 823.571719 218.055625 
L 823.571719 21.935625 
L 613.381719 21.935625 
z
" style="fill:#eaeaf2;"/>
   </g>
   <g id="matplotlib.axis_5">
    <g id="xtick_15">
     <g id="line2d_61">
      <path clip-path="url(#p30a3f0eeba)" d="M 614.555028 218.055625 
L 614.555028 21.935625 
" style="fill:none;stroke:#ffffff;stroke-linecap:round;"/>
     </g>
     <g id="line2d_62"/>
     <g id="text_36">
      <!-- 0 -->
      <g style="fill:#262626;" transform="translate(611.774559 232.213438)scale(0.1 -0.1)">
       <use xlink:href="#ArialMT-48"/>
      </g>
     </g>
    </g>
    <g id="xtick_16">
     <g id="line2d_63">
      <path clip-path="url(#p30a3f0eeba)" d="M 648.078154 218.055625 
L 648.078154 21.935625 
" style="fill:none;stroke:#ffffff;stroke-linecap:round;"/>
     </g>
     <g id="line2d_64"/>
     <g id="text_37">
      <!-- 20 -->
      <g style="fill:#262626;" transform="translate(642.517217 232.213438)scale(0.1 -0.1)">
       <use xlink:href="#ArialMT-50"/>
       <use x="55.615234" xlink:href="#ArialMT-48"/>
      </g>
     </g>
    </g>
    <g id="xtick_17">
     <g id="line2d_65">
      <path clip-path="url(#p30a3f0eeba)" d="M 681.60128 218.055625 
L 681.60128 21.935625 
" style="fill:none;stroke:#ffffff;stroke-linecap:round;"/>
     </g>
     <g id="line2d_66"/>
     <g id="text_38">
      <!-- 40 -->
      <g style="fill:#262626;" transform="translate(676.040343 232.213438)scale(0.1 -0.1)">
       <use xlink:href="#ArialMT-52"/>
       <use x="55.615234" xlink:href="#ArialMT-48"/>
      </g>
     </g>
    </g>
    <g id="xtick_18">
     <g id="line2d_67">
      <path clip-path="url(#p30a3f0eeba)" d="M 715.124406 218.055625 
L 715.124406 21.935625 
" style="fill:none;stroke:#ffffff;stroke-linecap:round;"/>
     </g>
     <g id="line2d_68"/>
     <g id="text_39">
      <!-- 60 -->
      <g style="fill:#262626;" transform="translate(709.563469 232.213438)scale(0.1 -0.1)">
       <use xlink:href="#ArialMT-54"/>
       <use x="55.615234" xlink:href="#ArialMT-48"/>
      </g>
     </g>
    </g>
    <g id="xtick_19">
     <g id="line2d_69">
      <path clip-path="url(#p30a3f0eeba)" d="M 748.647532 218.055625 
L 748.647532 21.935625 
" style="fill:none;stroke:#ffffff;stroke-linecap:round;"/>
     </g>
     <g id="line2d_70"/>
     <g id="text_40">
      <!-- 80 -->
      <g style="fill:#262626;" transform="translate(743.086595 232.213438)scale(0.1 -0.1)">
       <use xlink:href="#ArialMT-56"/>
       <use x="55.615234" xlink:href="#ArialMT-48"/>
      </g>
     </g>
    </g>
    <g id="xtick_20">
     <g id="line2d_71">
      <path clip-path="url(#p30a3f0eeba)" d="M 782.170658 218.055625 
L 782.170658 21.935625 
" style="fill:none;stroke:#ffffff;stroke-linecap:round;"/>
     </g>
     <g id="line2d_72"/>
     <g id="text_41">
      <!-- 100 -->
      <g style="fill:#262626;" transform="translate(773.829252 232.213438)scale(0.1 -0.1)">
       <use xlink:href="#ArialMT-49"/>
       <use x="55.615234" xlink:href="#ArialMT-48"/>
       <use x="111.230469" xlink:href="#ArialMT-48"/>
      </g>
     </g>
    </g>
    <g id="xtick_21">
     <g id="line2d_73">
      <path clip-path="url(#p30a3f0eeba)" d="M 815.693784 218.055625 
L 815.693784 21.935625 
" style="fill:none;stroke:#ffffff;stroke-linecap:round;"/>
     </g>
     <g id="line2d_74"/>
     <g id="text_42">
      <!-- 120 -->
      <g style="fill:#262626;" transform="translate(807.352378 232.213438)scale(0.1 -0.1)">
       <use xlink:href="#ArialMT-49"/>
       <use x="55.615234" xlink:href="#ArialMT-50"/>
       <use x="111.230469" xlink:href="#ArialMT-48"/>
      </g>
     </g>
    </g>
    <g id="text_43">
     <!-- Epochs -->
     <g style="fill:#262626;" transform="translate(700.1325 246.074531)scale(0.11 -0.11)">
      <use xlink:href="#ArialMT-69"/>
      <use x="66.699219" xlink:href="#ArialMT-112"/>
      <use x="122.314453" xlink:href="#ArialMT-111"/>
      <use x="177.929688" xlink:href="#ArialMT-99"/>
      <use x="227.929688" xlink:href="#ArialMT-104"/>
      <use x="283.544922" xlink:href="#ArialMT-115"/>
     </g>
    </g>
   </g>
   <g id="matplotlib.axis_6">
    <g id="ytick_16">
     <g id="line2d_75">
      <path clip-path="url(#p30a3f0eeba)" d="M 613.381719 207.404034 
L 823.571719 207.404034 
" style="fill:none;stroke:#ffffff;stroke-linecap:round;"/>
     </g>
     <g id="line2d_76"/>
     <g id="text_44">
      <!-- 5.6 -->
      <g style="fill:#262626;" transform="translate(592.481719 210.98294)scale(0.1 -0.1)">
       <use xlink:href="#ArialMT-53"/>
       <use x="55.615234" xlink:href="#ArialMT-46"/>
       <use x="83.398438" xlink:href="#ArialMT-54"/>
      </g>
     </g>
    </g>
    <g id="ytick_17">
     <g id="line2d_77">
      <path clip-path="url(#p30a3f0eeba)" d="M 613.381719 183.728865 
L 823.571719 183.728865 
" style="fill:none;stroke:#ffffff;stroke-linecap:round;"/>
     </g>
     <g id="line2d_78"/>
     <g id="text_45">
      <!-- 5.8 -->
      <g style="fill:#262626;" transform="translate(592.481719 187.307772)scale(0.1 -0.1)">
       <use xlink:href="#ArialMT-53"/>
       <use x="55.615234" xlink:href="#ArialMT-46"/>
       <use x="83.398438" xlink:href="#ArialMT-56"/>
      </g>
     </g>
    </g>
    <g id="ytick_18">
     <g id="line2d_79">
      <path clip-path="url(#p30a3f0eeba)" d="M 613.381719 160.053697 
L 823.571719 160.053697 
" style="fill:none;stroke:#ffffff;stroke-linecap:round;"/>
     </g>
     <g id="line2d_80"/>
     <g id="text_46">
      <!-- 6.0 -->
      <g style="fill:#262626;" transform="translate(592.481719 163.632603)scale(0.1 -0.1)">
       <use xlink:href="#ArialMT-54"/>
       <use x="55.615234" xlink:href="#ArialMT-46"/>
       <use x="83.398438" xlink:href="#ArialMT-48"/>
      </g>
     </g>
    </g>
    <g id="ytick_19">
     <g id="line2d_81">
      <path clip-path="url(#p30a3f0eeba)" d="M 613.381719 136.378528 
L 823.571719 136.378528 
" style="fill:none;stroke:#ffffff;stroke-linecap:round;"/>
     </g>
     <g id="line2d_82"/>
     <g id="text_47">
      <!-- 6.2 -->
      <g style="fill:#262626;" transform="translate(592.481719 139.957434)scale(0.1 -0.1)">
       <use xlink:href="#ArialMT-54"/>
       <use x="55.615234" xlink:href="#ArialMT-46"/>
       <use x="83.398438" xlink:href="#ArialMT-50"/>
      </g>
     </g>
    </g>
    <g id="ytick_20">
     <g id="line2d_83">
      <path clip-path="url(#p30a3f0eeba)" d="M 613.381719 112.703359 
L 823.571719 112.703359 
" style="fill:none;stroke:#ffffff;stroke-linecap:round;"/>
     </g>
     <g id="line2d_84"/>
     <g id="text_48">
      <!-- 6.4 -->
      <g style="fill:#262626;" transform="translate(592.481719 116.282265)scale(0.1 -0.1)">
       <use xlink:href="#ArialMT-54"/>
       <use x="55.615234" xlink:href="#ArialMT-46"/>
       <use x="83.398438" xlink:href="#ArialMT-52"/>
      </g>
     </g>
    </g>
    <g id="ytick_21">
     <g id="line2d_85">
      <path clip-path="url(#p30a3f0eeba)" d="M 613.381719 89.02819 
L 823.571719 89.02819 
" style="fill:none;stroke:#ffffff;stroke-linecap:round;"/>
     </g>
     <g id="line2d_86"/>
     <g id="text_49">
      <!-- 6.6 -->
      <g style="fill:#262626;" transform="translate(592.481719 92.607096)scale(0.1 -0.1)">
       <use xlink:href="#ArialMT-54"/>
       <use x="55.615234" xlink:href="#ArialMT-46"/>
       <use x="83.398438" xlink:href="#ArialMT-54"/>
      </g>
     </g>
    </g>
    <g id="ytick_22">
     <g id="line2d_87">
      <path clip-path="url(#p30a3f0eeba)" d="M 613.381719 65.353021 
L 823.571719 65.353021 
" style="fill:none;stroke:#ffffff;stroke-linecap:round;"/>
     </g>
     <g id="line2d_88"/>
     <g id="text_50">
      <!-- 6.8 -->
      <g style="fill:#262626;" transform="translate(592.481719 68.931927)scale(0.1 -0.1)">
       <use xlink:href="#ArialMT-54"/>
       <use x="55.615234" xlink:href="#ArialMT-46"/>
       <use x="83.398438" xlink:href="#ArialMT-56"/>
      </g>
     </g>
    </g>
    <g id="ytick_23">
     <g id="line2d_89">
      <path clip-path="url(#p30a3f0eeba)" d="M 613.381719 41.677852 
L 823.571719 41.677852 
" style="fill:none;stroke:#ffffff;stroke-linecap:round;"/>
     </g>
     <g id="line2d_90"/>
     <g id="text_51">
      <!-- 7.0 -->
      <g style="fill:#262626;" transform="translate(592.481719 45.256759)scale(0.1 -0.1)">
       <use xlink:href="#ArialMT-55"/>
       <use x="55.615234" xlink:href="#ArialMT-46"/>
       <use x="83.398438" xlink:href="#ArialMT-48"/>
      </g>
     </g>
    </g>
    <g id="text_52">
     <!-- KL -->
     <g style="fill:#262626;" transform="translate(586.295469 126.722813)rotate(-90)scale(0.11 -0.11)">
      <use xlink:href="#ArialMT-75"/>
      <use x="66.699219" xlink:href="#ArialMT-76"/>
     </g>
    </g>
   </g>
   <g id="line2d_91">
    <path clip-path="url(#p30a3f0eeba)" d="M 622.93581 204.237925 
L 624.611966 195.075805 
L 626.288122 195.435941 
L 627.964279 209.14108 
L 629.640435 156.412408 
L 631.316591 190.442786 
L 632.992747 172.344079 
L 634.668904 190.298158 
L 636.34506 140.439035 
L 638.021216 144.392531 
L 639.697373 136.405417 
L 641.373529 148.226532 
L 643.049685 150.311105 
L 644.725842 124.295363 
L 646.401998 116.353758 
L 648.078154 152.834333 
L 649.75431 99.80798 
L 651.430467 125.90541 
L 653.106623 105.985096 
L 654.782779 106.491051 
L 656.458936 85.822356 
L 658.135092 144.704225 
L 659.811248 100.907987 
L 661.487405 118.853456 
L 663.163561 87.720925 
L 664.839717 116.571287 
L 666.515873 106.6743 
L 668.19203 107.809145 
L 669.868186 91.553504 
L 671.544342 103.010776 
L 673.220499 97.39073 
L 674.896655 80.46521 
L 676.572811 91.347973 
L 678.248968 120.650465 
L 679.925124 94.027443 
L 681.60128 97.700194 
L 683.277436 74.293199 
L 684.953593 104.722045 
L 686.629749 91.180559 
L 688.305905 81.612424 
L 689.982062 85.038297 
L 691.658218 98.534337 
L 693.334374 82.10425 
L 695.010531 74.112452 
L 696.686687 74.426488 
L 698.362843 103.26089 
L 700.038999 67.034162 
L 701.715156 79.903573 
L 703.391312 60.034642 
L 705.067468 92.837326 
L 706.743625 67.259788 
L 708.419781 94.292846 
L 710.095937 63.333077 
L 711.772094 77.598968 
L 713.44825 81.556474 
L 715.124406 103.949645 
L 716.800562 61.777539 
L 718.476719 85.340913 
L 720.152875 83.8491 
L 721.829031 82.904384 
L 723.505188 71.902302 
L 725.181344 65.347164 
L 726.8575 76.943931 
L 728.533657 88.24027 
L 730.209813 89.467328 
L 731.885969 60.578833 
L 733.562125 82.831962 
L 735.238282 45.325979 
L 736.914438 71.436812 
L 738.590594 86.198851 
L 740.266751 63.573384 
L 741.942907 55.904306 
L 743.619063 52.260652 
L 745.29522 83.804531 
L 746.971376 70.27801 
L 748.647532 75.723659 
L 750.323688 63.385831 
L 751.999845 50.449514 
L 753.676001 60.642248 
L 755.352157 55.935984 
L 757.028314 68.156349 
L 758.70447 36.657621 
L 760.380626 70.799983 
L 762.056783 82.138921 
L 763.732939 54.582237 
L 765.409095 82.913335 
L 767.085251 80.772057 
L 768.761408 59.608733 
L 770.437564 54.712931 
L 772.11372 85.329949 
L 773.789877 38.66515 
L 775.466033 55.627781 
L 777.142189 72.428287 
L 778.818346 52.541149 
L 780.494502 50.334682 
L 782.170658 88.752857 
L 783.846814 30.85017 
L 785.522971 54.49627 
L 787.199127 74.416208 
L 788.875283 59.39409 
L 790.55144 58.77825 
L 792.227596 57.610648 
L 793.903752 81.854532 
L 795.579909 72.776973 
L 797.256065 63.694396 
L 798.932221 41.52636 
L 800.608377 64.282332 
L 802.284534 47.952739 
L 803.96069 38.633009 
L 805.636846 60.593326 
L 807.313003 45.370349 
L 808.989159 49.856847 
L 810.665315 71.04198 
L 812.341472 47.783234 
L 814.017628 55.561204 
" style="fill:none;stroke:#4c72b0;stroke-linecap:round;stroke-width:1.75;"/>
   </g>
   <g id="patch_13">
    <path d="M 613.381719 218.055625 
L 613.381719 21.935625 
" style="fill:none;"/>
   </g>
   <g id="patch_14">
    <path d="M 823.571719 218.055625 
L 823.571719 21.935625 
" style="fill:none;"/>
   </g>
   <g id="patch_15">
    <path d="M 613.381719 218.055625 
L 823.571719 218.055625 
" style="fill:none;"/>
   </g>
   <g id="patch_16">
    <path d="M 613.381719 21.935625 
L 823.571719 21.935625 
" style="fill:none;"/>
   </g>
   <g id="text_53">
    <!-- Coding Loss -->
    <defs>
     <path d="M 58.796875 25.09375 
L 68.265625 22.703125 
Q 65.28125 11.03125 57.546875 4.90625 
Q 49.8125 -1.21875 38.625 -1.21875 
Q 27.046875 -1.21875 19.796875 3.484375 
Q 12.546875 8.203125 8.765625 17.140625 
Q 4.984375 26.078125 4.984375 36.328125 
Q 4.984375 47.515625 9.25 55.828125 
Q 13.53125 64.15625 21.40625 68.46875 
Q 29.296875 72.796875 38.765625 72.796875 
Q 49.515625 72.796875 56.828125 67.328125 
Q 64.15625 61.859375 67.046875 51.953125 
L 57.71875 49.75 
Q 55.21875 57.5625 50.484375 61.125 
Q 45.75 64.703125 38.578125 64.703125 
Q 30.328125 64.703125 24.78125 60.734375 
Q 19.234375 56.78125 16.984375 50.109375 
Q 14.75 43.453125 14.75 36.375 
Q 14.75 27.25 17.40625 20.4375 
Q 20.0625 13.625 25.671875 10.25 
Q 31.296875 6.890625 37.84375 6.890625 
Q 45.796875 6.890625 51.3125 11.46875 
Q 56.84375 16.0625 58.796875 25.09375 
z
" id="ArialMT-67"/>
     <path d="M 40.234375 0 
L 40.234375 6.546875 
Q 35.296875 -1.171875 25.734375 -1.171875 
Q 19.53125 -1.171875 14.328125 2.25 
Q 9.125 5.671875 6.265625 11.796875 
Q 3.421875 17.921875 3.421875 25.875 
Q 3.421875 33.640625 6 39.96875 
Q 8.59375 46.296875 13.765625 49.65625 
Q 18.953125 53.03125 25.34375 53.03125 
Q 30.03125 53.03125 33.6875 51.046875 
Q 37.359375 49.078125 39.65625 45.90625 
L 39.65625 71.578125 
L 48.390625 71.578125 
L 48.390625 0 
z
M 12.453125 25.875 
Q 12.453125 15.921875 16.640625 10.984375 
Q 20.84375 6.0625 26.5625 6.0625 
Q 32.328125 6.0625 36.34375 10.765625 
Q 40.375 15.484375 40.375 25.140625 
Q 40.375 35.796875 36.265625 40.765625 
Q 32.171875 45.75 26.171875 45.75 
Q 20.3125 45.75 16.375 40.96875 
Q 12.453125 36.1875 12.453125 25.875 
z
" id="ArialMT-100"/>
     <path d="M 4.984375 -4.296875 
L 13.53125 -5.5625 
Q 14.0625 -9.515625 16.5 -11.328125 
Q 19.78125 -13.765625 25.4375 -13.765625 
Q 31.546875 -13.765625 34.859375 -11.328125 
Q 38.1875 -8.890625 39.359375 -4.5 
Q 40.046875 -1.8125 39.984375 6.78125 
Q 34.234375 0 25.640625 0 
Q 14.9375 0 9.078125 7.71875 
Q 3.21875 15.4375 3.21875 26.21875 
Q 3.21875 33.640625 5.90625 39.90625 
Q 8.59375 46.1875 13.6875 49.609375 
Q 18.796875 53.03125 25.6875 53.03125 
Q 34.859375 53.03125 40.828125 45.609375 
L 40.828125 51.859375 
L 48.921875 51.859375 
L 48.921875 7.03125 
Q 48.921875 -5.078125 46.453125 -10.125 
Q 44 -15.1875 38.640625 -18.109375 
Q 33.296875 -21.046875 25.484375 -21.046875 
Q 16.21875 -21.046875 10.5 -16.875 
Q 4.78125 -12.703125 4.984375 -4.296875 
z
M 12.25 26.859375 
Q 12.25 16.65625 16.296875 11.96875 
Q 20.359375 7.28125 26.46875 7.28125 
Q 32.515625 7.28125 36.609375 11.9375 
Q 40.71875 16.609375 40.71875 26.5625 
Q 40.71875 36.078125 36.5 40.90625 
Q 32.28125 45.75 26.3125 45.75 
Q 20.453125 45.75 16.34375 40.984375 
Q 12.25 36.234375 12.25 26.859375 
z
" id="ArialMT-103"/>
    </defs>
    <g style="fill:#262626;" transform="translate(685.124219 15.935625)scale(0.12 -0.12)">
     <use xlink:href="#ArialMT-67"/>
     <use x="72.216797" xlink:href="#ArialMT-111"/>
     <use x="127.832031" xlink:href="#ArialMT-100"/>
     <use x="183.447266" xlink:href="#ArialMT-105"/>
     <use x="205.664062" xlink:href="#ArialMT-110"/>
     <use x="261.279297" xlink:href="#ArialMT-103"/>
     <use x="316.894531" xlink:href="#ArialMT-32"/>
     <use x="344.677734" xlink:href="#ArialMT-76"/>
     <use x="400.292969" xlink:href="#ArialMT-111"/>
     <use x="455.908203" xlink:href="#ArialMT-115"/>
     <use x="505.908203" xlink:href="#ArialMT-115"/>
    </g>
   </g>
  </g>
 </g>
 <defs>
  <clipPath id="p0a4072a363">
   <rect height="196.12" width="210.19" x="53.281719" y="21.935625"/>
  </clipPath>
  <clipPath id="p4c7e80e986">
   <rect height="196.12" width="210.19" x="333.331719" y="21.935625"/>
  </clipPath>
  <clipPath id="p30a3f0eeba">
   <rect height="196.12" width="210.19" x="613.381719" y="21.935625"/>
  </clipPath>
 </defs>
</svg>
